<svg id="Layer_1" enable-background="new 0 0 512 512" height="512" viewBox="0 0 512 512" width="512" xmlns="http://www.w3.org/2000/svg"><g><path d="m232.665 119.665h46.669v46.669h-46.669z" fill="#a7bdcd" transform="matrix(.707 -.707 .707 .707 -26.136 222.903)"/><path d="m156 94 58 58 42-42-100-100z" fill="#fff"/><path d="m356 94-58 58-42-42 100-100z" fill="#fff"/><path d="m256 176-40 40v246l40 40 40-40v-246z" fill="#e2e9ee"/><path d="m256 176-40 40v246l40 40 40-40v-246z" fill="#fff"/><g fill="#e2e9ee"><path d="m296 216-40-40-32.6 32.6 72.6 72.6z"/><path d="m216 462 40 40 32.6-32.6-72.6-72.6z"/><path d="m216 266.4v65.2l80 80v-65.2z"/></g><path d="m359.827.76c-3.737-1.546-8.038-.691-10.898 2.168l-92.929 92.929-92.929-92.929c-2.86-2.859-7.163-3.714-10.898-2.168-3.737 1.548-6.173 5.195-6.173 9.24v84c0 2.652 1.054 5.195 2.929 7.071l58 58c1.953 1.952 4.512 2.929 7.071 2.929s5.119-.977 7.071-2.929l1.929-1.929 18.858 18.858-32.929 32.929c-1.875 1.875-2.929 4.418-2.929 7.071v246c0 2.652 1.054 5.195 2.929 7.071l40 40c1.953 1.952 4.512 2.929 7.071 2.929 2.56 0 5.118-.977 7.071-2.929l40-40c1.875-1.876 2.929-4.419 2.929-7.071v-246c0-2.652-1.054-5.195-2.929-7.071l-32.929-32.929 18.858-18.858 1.929 1.929c1.953 1.952 4.511 2.929 7.071 2.929s5.118-.977 7.071-2.929l58-58c1.875-1.876 2.929-4.419 2.929-7.071v-84c0-4.045-2.437-7.692-6.173-9.24zm-193.827 89.097v-55.715l75.858 75.858-27.858 27.857zm60 302.8v-36.915l60 59.999v36.916zm0-65.199v-36.916l60 60v36.915zm60-5.201-60-59.999v-36.916l59.728 59.729c.087.087.182.162.272.245zm-30 165.6-30-30v-36.914l48.457 48.457zm30-267.715v36.915l-48.457-48.458 18.457-18.457zm-30-58.285-18.858-18.857 18.858-18.858 18.857 18.858zm90-72-48 48-27.858-27.857 75.858-75.858z" fill="#6d92ac"/><circle cx="302" cy="106" fill="#e2e9ee" r="10"/><circle cx="210" cy="106" fill="#e2e9ee" r="10"/></g></svg>